<svg width="119" height="39" viewBox="0 0 119 39" fill="none" xmlns="http://www.w3.org/2000/svg">
<path d="M0.59668 4C0.68457 3.4043 0.728516 2.87695 0.728516 2.41797C0.728516 1.95898 0.723633 1.64648 0.713867 1.48047C0.713867 1.30469 0.708984 1.13379 0.699219 0.967773C0.689453 0.801758 0.679688 0.645508 0.669922 0.499023L0.625977 0.132812H4.87402C4.84473 0.503906 4.83008 0.806641 4.83008 1.04102L4.80078 1.65625C4.80078 1.8418 4.80078 2.19336 4.80078 2.71094C4.80078 3.21875 4.8252 3.64844 4.87402 4H0.59668ZM14.708 4C14.7959 3.4043 14.8398 2.87695 14.8398 2.41797C14.8398 1.95898 14.835 1.64648 14.8252 1.48047C14.8252 1.30469 14.8203 1.13379 14.8105 0.967773C14.8008 0.801758 14.791 0.645508 14.7812 0.499023L14.7373 0.132812H18.9854C18.9561 0.503906 18.9414 0.806641 18.9414 1.04102L18.9121 1.65625C18.9121 1.8418 18.9121 2.19336 18.9121 2.71094C18.9121 3.21875 18.9365 3.64844 18.9854 4H14.708ZM5.47461 28.0879C5.00586 28.0293 4.10254 28 2.76465 28H1.59277V8.45898C2.21777 8.49805 2.90625 8.51758 3.6582 8.51758C4.41016 8.51758 4.94238 8.47852 5.25488 8.40039L10.1768 16.7646L14.9082 8.40039C15.2207 8.47852 15.8164 8.51758 16.6953 8.51758C17.5742 8.51758 18.3262 8.49805 18.9512 8.45898V28H17.7793C16.4414 28 15.5381 28.0293 15.0693 28.0879V14.9629L10.2793 23.5322L5.47461 15.6514V28.0879ZM23.2432 8.32715C24.0244 7.10645 24.8398 6.03223 25.6895 5.10449L28.8389 7.58008C28.4189 8.09766 28.0283 8.60547 27.667 9.10352C27.667 9.10352 27.291 9.63574 26.5391 10.7002L23.2432 8.32715ZM27.0957 26.3594C27.0957 27.1992 27.1152 27.7461 27.1543 28H23.4336V12.6924H27.0957V26.3594ZM35.0938 26.125C35.0938 26.9844 35.1328 27.6094 35.2109 28H31.5342V12.6924H35.0938V13.9961C36.3828 12.9316 37.7598 12.3994 39.2246 12.3994C40.8262 12.3994 42.1055 12.9463 43.0625 14.04C44.0195 15.124 44.498 16.5547 44.498 18.332V24.1621C44.498 25.8125 44.5225 26.8037 44.5713 27.1357C44.6201 27.4678 44.6836 27.6826 44.7617 27.7803C44.8496 27.8779 44.9229 27.9658 44.9814 28.0439L44.9521 28.1025C44.1611 28.0342 43.585 28 43.2236 28H42.1982C41.8857 28 41.4658 28.0146 40.9385 28.0439V20.0605C40.9385 17.1992 40.0693 15.7686 38.3311 15.7686C37.042 15.7686 35.9629 16.4326 35.0938 17.7607V26.125ZM57.96 26.667C56.71 27.7021 55.3477 28.2197 53.873 28.2197C52.291 28.2197 51.0508 27.6875 50.1523 26.623C49.293 25.5879 48.8633 24.167 48.8633 22.3604V16.5449C48.8633 14.5918 48.8193 13.4736 48.7314 13.1904C48.6533 12.8975 48.5947 12.7119 48.5557 12.6338C49.0049 12.6729 49.4736 12.6924 49.9619 12.6924H51.1777C51.5 12.6924 51.9248 12.6777 52.4521 12.6484V21.1299C52.4521 23.1416 52.999 24.3086 54.0928 24.6309C54.4248 24.7285 54.7861 24.7773 55.1768 24.7773C56.3291 24.7773 57.2568 24.3574 57.96 23.5176V12.6924H61.5928V26.125C61.5928 26.9844 61.6318 27.6094 61.71 28H57.96V26.667ZM73.0771 24.7773C74.3369 24.7773 75.2012 24.4502 75.6699 23.7959H75.7871L75.8311 27.1943C75.3525 27.6729 74.4639 27.9902 73.165 28.1465C72.8135 28.1953 72.374 28.2197 71.8467 28.2197C71.3291 28.2197 70.7627 28.1221 70.1475 27.9268C69.542 27.7314 69.0244 27.4141 68.5947 26.9746C67.7061 26.0664 67.2617 24.6455 67.2617 22.7119V16.0615H65.0498C65.04 15.7783 65.0352 15.4902 65.0352 15.1973V12.9414C65.0352 12.7754 65.04 12.6924 65.0498 12.6924H67.2617V8.51758H70.8506V12.6924H74.8789V16.0615H70.8506V22.0381C70.8506 23.5713 71.2754 24.4453 72.125 24.6602C72.3984 24.7383 72.7158 24.7773 73.0771 24.7773ZM78.3506 8.32715C79.1318 7.10645 79.9473 6.03223 80.7969 5.10449L83.9463 7.58008C83.5264 8.09766 83.1357 8.60547 82.7744 9.10352C82.7744 9.10352 82.3984 9.63574 81.6465 10.7002L78.3506 8.32715ZM82.2031 26.3594C82.2031 27.1992 82.2227 27.7461 82.2617 28H78.541V12.6924H82.2031V26.3594ZM90.2012 26.125C90.2012 26.9844 90.2402 27.6094 90.3184 28H86.6416V12.6924H90.2012V13.9961C91.4902 12.9316 92.8672 12.3994 94.332 12.3994C95.9336 12.3994 97.2129 12.9463 98.1699 14.04C99.127 15.124 99.6055 16.5547 99.6055 18.332V24.1621C99.6055 25.8125 99.6299 26.8037 99.6787 27.1357C99.7275 27.4678 99.791 27.6826 99.8691 27.7803C99.957 27.8779 100.03 27.9658 100.089 28.0439L100.06 28.1025C99.2686 28.0342 98.6924 28 98.3311 28H97.3057C96.9932 28 96.5732 28.0146 96.0459 28.0439V20.0605C96.0459 17.1992 95.1768 15.7686 93.4385 15.7686C92.1494 15.7686 91.0703 16.4326 90.2012 17.7607V26.125ZM107.926 23.9277C107.564 24.4062 107.384 24.7871 107.384 25.0703C107.384 25.3438 107.428 25.5586 107.516 25.7148C107.604 25.8613 107.794 26.0029 108.087 26.1396C108.731 26.4424 109.791 26.7109 111.266 26.9453C112.74 27.1699 113.893 27.4531 114.723 27.7949C115.562 28.1367 116.241 28.5566 116.759 29.0547C117.726 30.002 118.209 31.3447 118.209 33.083C118.209 34.8213 117.599 36.1543 116.378 37.082C115.157 38.0195 113.346 38.4883 110.943 38.4883C108.521 38.4883 106.568 37.9609 105.084 36.9062C103.6 35.8516 102.838 34.4502 102.799 32.7021C102.74 30.6709 103.536 29.2012 105.187 28.293C104.737 27.9219 104.435 27.4873 104.278 26.9893C104.132 26.4814 104.059 25.9053 104.059 25.2607C104.059 24.1768 104.532 23.2588 105.479 22.5068C104.376 21.4619 103.824 20.1631 103.824 18.6104C103.824 16.8721 104.449 15.417 105.699 14.2451C107.018 13.0146 108.727 12.3994 110.826 12.3994C111.93 12.3994 112.965 12.6045 113.932 13.0146C115.201 12.4775 116.134 12.0088 116.729 11.6084C117.325 11.1982 117.706 10.9004 117.872 10.7148L117.96 10.7295C118.048 10.9639 118.15 11.2959 118.268 11.7256L118.531 12.7803C118.766 13.6494 118.907 14.2451 118.956 14.5674C118.526 15.0361 117.77 15.3682 116.686 15.5635C117.105 16.374 117.315 17.2334 117.315 18.1416C117.315 19.0498 117.159 19.875 116.847 20.6172C116.534 21.3496 116.09 21.9941 115.514 22.5508C114.234 23.752 112.604 24.3525 110.621 24.3525C109.654 24.3525 108.756 24.2109 107.926 23.9277ZM107.545 17.3359C107.408 17.6875 107.34 18.0439 107.34 18.4053C107.34 18.7666 107.413 19.1133 107.56 19.4453C107.716 19.7773 107.94 20.0752 108.233 20.3389C108.888 20.9248 109.742 21.2178 110.797 21.2178C111.598 21.2178 112.291 20.9492 112.877 20.4121C113.492 19.8262 113.8 19.123 113.8 18.3027C113.8 17.4727 113.521 16.8037 112.965 16.2959C112.408 15.7881 111.642 15.5342 110.665 15.5342C109.054 15.5342 108.014 16.1348 107.545 17.3359ZM111.134 35.3828C113.536 35.3828 114.737 34.543 114.737 32.8633C114.737 32.0625 114.347 31.418 113.565 30.9297C112.687 30.373 111.178 29.9385 109.039 29.626L108.277 29.4941C107.633 29.8359 107.159 30.2754 106.856 30.8125C106.554 31.3496 106.402 31.8574 106.402 32.3359C106.412 32.8242 106.529 33.2441 106.754 33.5957C106.979 33.9473 107.291 34.2549 107.691 34.5186C108.58 35.0947 109.728 35.3828 111.134 35.3828Z" fill="black"/>
</svg>
